<svg xmlns="http://www.w3.org/2000/svg" viewBox="0 0 526.7 706.19"><title>jira</title><g id="Layer_2" data-name="Layer 2"><g id="Layer_1-2" data-name="Layer 1"><path d="M512.25,162.23a24.71,24.71,0,0,0-7.32,3.36c-28.44,21.32-61.1,30.72-95.91,33.92-4.45.41-6.26,1.8-7.71,6.23-3.44,10.51-7.16,21.06-12.13,30.91C359,296.59,313.84,344.72,266,392c-3.45-3.19-6.31-5.66-9-8.31-54.51-54.2-107.5-109.51-132.88-185.19L119,198c-32.79-3-64-10.76-91.38-30.18-6.44-4.57-13.38-10.16-21.39-5.35C-1.43,167.11-.38,176,.9,183.28c2.81,15.93,5.55,32.06,10.5,47.4,16.88,52.3,45.37,98.48,81,139.66C126,409.23,162.56,445.55,197.81,483,234,521.55,269.43,560.75,297,606.24c11.27,18.61,21.17,38,24.13,59.82,1.47,10.82.26,22,.26,33.39H435.95c-2.28-87.76-32.69-164.18-88.65-233.34,3.5-2.56,6.91-4.46,9.59-7.1,31.3-30.8,62.06-62.1,88.58-97.25,32.66-43.28,60.87-89.05,74.78-142,4.07-15.51,5.39-31.9,6.41-48C527.23,162.84,520.85,159.49,512.25,162.23Z"/><path d="M160.67,496.24C117.12,561,93.45,629.64,92.56,706.19H204.84c.87-13.15.6-25.94,2.77-38.29,4.58-26.05,17.45-48.73,31.56-70.69,2-3.18,4.53-5.81.93-9.91C213.85,557.41,187.78,527.37,160.67,496.24Z"/><path d="M200.28,229c16.21,30.78,39.48,55.87,64.4,80.53,22.6-22.22,44.75-43.69,60.54-70.61a52.39,52.39,0,0,0,5.88-15c2.36-10.71-2.15-15.94-13-16q-54-.07-108.08,0c-10.49,0-13,2.88-11.7,13.23A23.22,23.22,0,0,0,200.28,229Z"/><path d="M413.87,139.22a49.5,49.5,0,0,0,49.57-49.5c0-27.66-21.7-49.29-49.48-49.26A49.17,49.17,0,0,0,364.59,90C364.82,116.89,387.06,139.08,413.87,139.22Z"/><path d="M270.94,98.83c26.73-.14,49-22.51,49-49.34C320,22.33,297.56,0,270.25,0S221,22.11,221.16,49.78A49,49,0,0,0,270.94,98.83Z"/><path d="M120.6,139.22c27.08.19,49.78-22.31,49.87-49.43a49.21,49.21,0,0,0-49.65-49.32C93.06,40.51,71.54,62.18,71.66,90A49.34,49.34,0,0,0,120.6,139.22Z"/></g></g></svg>