<svg xmlns="http://www.w3.org/2000/svg" viewBox="0 0 468.62 579"><title>smartsheet</title><g id="Layer_2" data-name="Layer 2"><g id="Layer_1-2" data-name="Layer 1"><path d="M0,0H464.54l4.08,4.48C374.57,94.86,295,195.34,244.81,320.12c-12.07-23.11-22.18-43.76-33.43-63.78C180,200.55,129.85,199.2,90.22,255.22c45.67,11.94,57.86,51.71,74.18,88.19q25.52,57.05,51.14,114.06c2.58,5.73,5.66,11.23,10.47,20.69,63.8-153.27,132.52-299.22,239-430,1.28,10.76,2.5,16.15,2.48,21.54-.57,126.59-1.07,253.18-2.23,379.77a190.53,190.53,0,0,1-6.46,47.6c-5.23,19.29-18.24,23.34-32.37,9.42-14.4-14.18-26.21-31.11-38.27-47.48-6-8.11-10-17.69-15.8-28.35C261.1,515,133.79,555.71,0,579Z"/></g></g></svg>